<?xml version="1.0" standalone="no"?>
<!DOCTYPE svg PUBLIC "-//W3C//DTD SVG 20010904//EN"
 "http://www.w3.org/TR/2001/REC-SVG-20010904/DTD/svg10.dtd">
<svg version="1.0" xmlns="http://www.w3.org/2000/svg"
 width="476.000000pt" height="370.000000pt" viewBox="0 0 476.000000 370.000000"
 preserveAspectRatio="xMidYMid meet">

<g transform="translate(0.000000,370.000000) scale(0.100000,-0.100000)"
fill="#000000" stroke="none">
<path d="M0 1850 l0 -1850 2380 0 2380 0 0 1850 0 1850 -2380 0 -2380 0 0
-1850z m1868 1472 c14 -19 16 -62 2 -62 -5 0 -10 6 -10 13 0 6 -12 23 -25 36
-20 18 -25 20 -25 7 0 -9 -4 -16 -9 -16 -5 0 -11 -9 -14 -20 -3 -11 -10 -20
-15 -20 -18 0 -23 33 -7 56 23 35 76 38 103 6z m-7 -89 c-21 -16 -63 -16 -84
0 -15 10 -8 12 41 12 49 0 56 -2 43 -12z m-214 -300 c-6 -5 -96 50 -97 59 0 4
23 -6 51 -23 27 -17 48 -33 46 -36z m190 -20 c-7 -7 -107 46 -107 56 0 5 25
-4 56 -21 30 -17 53 -32 51 -35z m-212 -7 c11 -8 16 -16 12 -16 -13 0 -87 44
-87 53 0 8 44 -13 75 -37z m191 -24 c13 -7 24 -17 24 -21 0 -12 -99 41 -105
57 -3 8 6 6 27 -5 17 -10 41 -24 54 -31z m-237 4 c6 -8 25 -19 42 -26 16 -7
28 -15 25 -17 -7 -7 -96 39 -96 49 0 13 16 9 29 -6z m204 -36 c14 -11 30 -20
35 -20 5 0 13 -7 16 -16 4 -10 2 -13 -7 -8 -70 43 -98 64 -85 64 8 0 27 -9 41
-20z m330 -9 c15 -8 27 -18 27 -23 0 -4 7 -8 15 -8 8 0 15 -5 15 -11 0 -11
-64 23 -90 49 -16 15 -11 14 33 -7z m-538 -1 c3 -5 22 -17 41 -26 19 -9 32
-19 30 -22 -7 -6 -96 40 -96 50 0 11 18 10 25 -2z m175 -20 c0 -5 3 -9 8 -8
10 2 84 -43 79 -49 -3 -2 -23 6 -45 17 -44 23 -73 50 -53 50 6 0 11 -4 11 -10z
m420 -70 c0 -5 -22 5 -50 22 -27 17 -50 35 -50 39 0 5 23 -5 50 -22 28 -17 50
-35 50 -39z m-565 23 c25 -16 45 -32 45 -36 0 -9 -65 27 -90 50 -23 21 -4 15
45 -14z m176 -19 c39 -23 41 -25 14 -19 -16 3 -39 15 -50 26 -27 26 -15 24 36
-7z m350 -21 c56 -40 48 -48 -11 -11 -27 17 -50 33 -50 34 0 11 27 1 61 -23z
m-534 -4 c40 -22 62 -39 50 -39 -11 0 -107 50 -107 55 0 10 21 4 57 -16z m196
-29 c54 -34 60 -43 17 -29 -16 6 -30 15 -30 19 0 4 -11 11 -25 14 -14 4 -25
11 -25 16 0 16 13 12 63 -20z m42 20 c-3 -5 -12 -10 -18 -10 -7 0 -6 4 3 10
19 12 23 12 15 0z m335 -64 c0 -6 -5 -4 -10 4 -5 8 -10 11 -10 7 0 -10 -80 34
-80 43 0 4 23 -4 50 -18 28 -13 50 -30 50 -36z m-572 22 c41 -23 58 -43 25
-31 -26 9 -89 53 -78 53 6 0 29 -10 53 -22z m195 -28 c26 -16 47 -32 47 -35 0
-8 -98 43 -105 55 -11 18 10 11 58 -20z m317 2 c16 -10 27 -21 24 -24 -7 -8
-64 21 -64 33 0 13 5 12 40 -9z m-470 -54 c0 -4 -20 5 -45 19 -25 13 -45 29
-45 34 0 5 20 -4 45 -19 25 -15 45 -30 45 -34z m744 40 c-5 -8 -2 -9 9 -5 10
3 17 2 17 -3 0 -6 -2 -10 -4 -10 -2 0 -12 -3 -22 -7 -12 -4 -15 -3 -10 5 4 8
0 12 -11 12 -15 0 -16 2 -3 10 21 13 33 12 24 -2z m-593 -35 c27 -16 49 -32
49 -36 0 -7 -84 36 -104 55 -20 17 7 7 55 -19z m379 7 c0 -5 -7 -7 -15 -4 -8
4 -12 10 -9 15 6 11 24 2 24 -11z m-57 -10 c14 -11 29 -20 34 -20 6 0 10 -6
10 -14 0 -10 -6 -10 -29 3 -15 9 -28 20 -28 24 0 5 -4 6 -9 3 -5 -3 -11 1 -15
9 -8 21 7 19 37 -5z m-468 -51 c4 -5 3 -9 0 -9 -13 0 -95 52 -95 60 0 10 87
-37 95 -51z m188 -27 c6 -8 -12 -2 -41 14 -28 16 -52 33 -52 37 0 10 77 -33
93 -51z m-311 31 c24 -22 23 -75 -2 -98 -41 -37 -103 19 -84 78 12 40 54 50
86 20z m635 -41 c0 -13 -2 -13 -11 0 -6 8 -26 20 -43 27 -18 7 -33 17 -33 22
0 5 20 -1 43 -12 24 -12 44 -28 44 -37z m-526 -2 c13 -10 18 -19 12 -20 -7 0
-13 4 -13 8 0 5 -10 14 -22 20 -13 6 -18 11 -12 11 7 1 22 -8 35 -19z m167
-11 c52 -38 55 -48 5 -18 -69 42 -79 49 -62 49 8 0 34 -14 57 -31z m325 -4
c20 -14 37 -28 37 -31 0 -7 -78 35 -85 46 -11 17 9 11 48 -15z m-499 -30 c11
-8 15 -15 10 -15 -6 0 -19 7 -30 15 -10 8 -14 14 -9 14 6 0 19 -6 29 -14z
m181 -16 c17 -10 23 -19 15 -19 -8 0 -33 12 -55 26 -29 18 -33 23 -15 18 14
-3 39 -15 55 -25z m340 -23 c15 -14 9 -13 -25 6 -24 14 -46 31 -48 38 -5 14
42 -15 73 -44z m-530 -2 c35 -23 31 -36 -5 -16 -16 9 -30 20 -30 25 0 11 8 9
35 -9z m189 -26 c21 -15 36 -28 31 -28 -14 0 -105 53 -105 61 0 12 30 -1 74
-33z m286 17 c0 6 3 5 8 -1 4 -6 21 -18 37 -27 17 -9 24 -16 16 -17 -20 0 -81
40 -81 53 0 7 4 6 10 -3 5 -8 10 -10 10 -5z m58 -89 c14 -16 8 -15 -28 6 -24
14 -46 31 -48 38 -6 16 53 -18 76 -44z m9 -53 c-8 -7 -56 20 -51 28 3 5 16 1
30 -7 13 -9 23 -19 21 -21z m983 7 c28 -28 27 -84 -2 -104 -35 -25 -73 -20
-86 9 -19 40 -15 75 7 75 14 0 20 -10 25 -41 5 -34 10 -40 28 -37 16 2 23 11
25 36 4 29 1 32 -21 32 -15 0 -26 5 -26 10 0 6 -7 10 -15 10 -18 0 -20 16 -2
23 25 11 48 6 67 -13z m-15 -50 c-3 -5 -10 -10 -16 -10 -5 0 -9 5 -9 10 0 6 7
10 16 10 8 0 12 -4 9 -10z m-659 -241 c10 -16 -9 -29 -34 -23 -35 10 -26 25
20 33 4 0 10 -4 14 -10z m-663 -29 c-3 -11 -7 -20 -9 -20 -2 0 -4 9 -4 20 0
11 4 20 9 20 5 0 7 -9 4 -20z m1977 -10 c21 -21 29 -77 9 -64 -6 3 -9 15 -6
25 6 21 -22 34 -53 24 -13 -4 -20 -16 -21 -33 0 -24 -1 -25 -8 -7 -10 24 -4
46 17 63 22 17 39 15 62 -8z m-2037 -5 c-3 -9 -8 -14 -10 -11 -7 7 -33 -20
-33 -33 0 -6 -1 -11 -3 -11 -1 0 -17 -4 -35 -9 -25 -8 -32 -7 -32 5 0 8 6 14
14 14 8 0 17 7 20 16 3 8 10 12 16 9 5 -3 10 -2 10 3 0 8 36 30 52 31 4 1 5
-6 1 -14z m1032 5 c-3 -6 4 -10 17 -11 l23 0 -22 -9 c-13 -5 -23 -17 -23 -25
0 -9 -4 -13 -10 -10 -11 7 -14 48 -3 58 10 11 25 8 18 -3z m56 -53 c-8 -8 -11
-5 -11 9 0 27 14 41 18 19 2 -9 -1 -22 -7 -28z m-851 18 c0 -8 -7 -15 -15 -15
-8 0 -15 -9 -15 -21 0 -11 -4 -17 -10 -14 -13 8 -7 45 11 56 20 13 29 11 29
-6z m1440 -52 c0 -24 -25 -9 -28 17 -3 21 -2 22 12 11 9 -7 16 -20 16 -28z
m-697 13 c6 -16 -2 -28 -14 -20 -12 7 -11 34 0 34 5 0 11 -6 14 -14z m162 4
c3 -5 1 -10 -4 -10 -6 0 -11 5 -11 10 0 6 2 10 4 10 3 0 8 -4 11 -10z m488
-23 c7 3 9 3 5 -2 -4 -4 -3 -14 3 -22 16 -18 4 -16 -15 3 -9 8 -16 21 -15 27
0 8 2 8 6 -1 2 -6 10 -9 16 -5z m407 -3 c-15 -17 -61 -15 -68 4 -2 8 9 12 38
12 37 0 41 -2 30 -16z m-1435 -34 c3 -5 2 -10 -4 -10 -5 0 -13 5 -16 10 -3 6
-2 10 4 10 5 0 13 -4 16 -10z m-20 -18 c18 -8 36 -25 44 -45 18 -41 25 -45 91
-53 36 -5 61 -14 73 -27 20 -24 20 -23 7 -48 -14 -25 -45 -24 -77 1 -14 11
-32 20 -39 20 -8 0 -14 4 -14 8 0 5 -18 17 -40 27 -22 10 -40 21 -40 25 0 7
-41 22 -65 24 -19 2 -18 59 1 73 10 7 21 12 24 10 3 -2 19 -9 35 -15z m-855
-15 c0 -2 -9 -14 -20 -27 -11 -13 -20 -19 -20 -15 0 5 -7 0 -15 -11 -14 -18
-14 -18 -15 0 0 15 -3 16 -15 6 -15 -13 -20 -3 -7 15 14 20 92 46 92 32z m945
-7 c3 -5 1 -10 -4 -10 -6 0 -11 5 -11 10 0 6 2 10 4 10 3 0 8 -4 11 -10z
m-285 -15 c0 -9 -11 -20 -24 -25 -13 -5 -27 -14 -31 -19 -9 -16 -25 -13 -25 4
0 8 17 23 38 34 45 25 42 24 42 6z m-617 -76 c-3 -10 -9 -19 -13 -19 -4 0 -10
-7 -14 -15 -3 -10 1 -15 14 -15 12 0 21 10 25 30 8 38 25 39 25 1 0 -30 -20
-53 -51 -58 -14 -2 -21 7 -30 40 -6 23 -12 44 -14 47 -2 3 12 6 30 7 28 1 32
-2 28 -18z m287 7 c0 -3 -4 -8 -10 -11 -5 -3 -10 -1 -10 4 0 6 5 11 10 11 6 0
10 -2 10 -4z m280 -6 c0 -5 3 -15 6 -24 8 -21 -19 -21 -40 0 -23 22 -20 32 9
32 14 0 25 -4 25 -8z m490 0 c0 -5 -4 -10 -9 -10 -6 0 -13 5 -16 10 -3 6 1 10
9 10 9 0 16 -4 16 -10z m-420 -70 c0 -5 -7 -7 -15 -4 -8 4 -15 8 -15 10 0 2 7
4 15 4 8 0 15 -4 15 -10z m70 -40 c0 -5 -2 -10 -4 -10 -3 0 -8 5 -11 10 -3 6
-1 10 4 10 6 0 11 -4 11 -10z m75 -36 c20 -15 20 -16 -4 -12 -14 2 -26 9 -29
16 -5 16 9 15 33 -4z m-235 -40 l80 -46 0 -45 c0 -52 2 -53 -95 6 -37 23 -71
41 -76 41 -5 0 -9 20 -9 45 0 25 5 45 10 45 6 0 47 -21 90 -46z m940 -141 c39
-50 9 -116 -51 -116 -39 0 -59 24 -59 70 0 68 70 97 110 46z m-966 -9 c18 -18
21 -34 6 -34 -5 0 -10 5 -10 11 0 5 -4 8 -9 5 -5 -4 -11 0 -14 6 -3 9 -9 7
-21 -7 -22 -29 -14 -40 28 -38 42 2 47 -12 10 -29 -23 -11 -29 -10 -45 11 -22
26 -24 44 -9 72 13 23 43 25 64 3z m1706 -29 c0 -9 -6 -12 -15 -9 -8 4 -12 10
-9 15 8 14 24 10 24 -6z m-976 -86 c9 -13 21 -19 30 -16 9 4 16 2 16 -3 0 -5
-10 -11 -22 -13 -20 -4 -20 -4 4 -6 15 0 30 -6 33 -12 5 -6 12 -4 21 8 13 17
13 17 14 -4 0 -15 -9 -24 -31 -32 -40 -14 -51 -14 -86 0 -25 9 -26 12 -10 20
23 13 22 25 -3 32 -11 3 -20 13 -20 24 0 15 2 16 10 3 8 -13 10 -12 10 3 0 23
16 22 34 -4z m-98 -54 c-1 -29 -1 -28 -27 -14 -11 5 -17 14 -14 20 4 5 11 7
16 4 5 -4 9 -1 9 4 0 6 4 11 9 11 5 0 8 -11 7 -25z m413 -109 c-3 -3 -11 5
-18 17 -13 21 -12 21 5 5 10 -10 16 -20 13 -22z m-216 -6 c-3 -11 -9 -20 -13
-20 -5 0 -6 9 -3 20 3 11 9 20 13 20 5 0 6 -9 3 -20z m188 -51 c-12 -12 -25
-18 -28 -15 -3 3 5 14 18 25 31 25 39 17 10 -10z m48 -5 c-6 -8 -18 -14 -25
-14 -11 0 -10 5 4 18 19 21 39 18 21 -4z m51 16 c0 -5 -5 -10 -11 -10 -5 0 -7
5 -4 10 3 6 8 10 11 10 2 0 4 -4 4 -10z m-180 -40 c0 -5 -13 -2 -30 6 -16 9
-30 17 -30 19 0 2 14 -1 30 -6 17 -6 30 -15 30 -19z"/>
<path d="M1440 2515 c1 -28 52 -56 65 -35 3 6 11 8 16 5 5 -4 9 6 9 20 0 24
-2 26 -45 23 -25 -2 -45 -7 -45 -13z"/>
<path d="M2911 1315 l2 -40 6 35 7 35 6 -31 c6 -27 11 -31 32 -27 53 11 42 59
-15 65 l-39 4 1 -41z m66 9 c-3 -3 -12 -4 -19 -1 -8 3 -5 6 6 6 11 1 17 -2 13
-5z"/>
<path d="M2765 1170 c-7 -12 12 -12 40 0 18 8 17 9 -7 9 -15 1 -30 -3 -33 -9z"/>
</g>
</svg>
